<?xml version="1.0" encoding="UTF-8"?>
<svg version="1.1" xmlns="http://www.w3.org/2000/svg" width="154" height="151">
<path d="M0 0 C-1.03898437 0.40089844 -2.07796875 0.80179688 -3.1484375 1.21484375 C-16.03967494 6.38526683 -26.04763649 12.89694238 -32 26 C-36.44777383 37.9565631 -35.75624321 48.1752363 -30.78125 59.86328125 C-25.33400078 70.80317342 -17.35988578 76.83172695 -6 81 C2.7795027 83.88945659 14.24615347 82.83723162 22.6015625 79.26171875 C29.44070105 75.66393088 33.84648603 71.48986558 38 65 C37.01 65 36.02 65 35 65 C35 65.66 35 66.32 35 67 C26.02690301 71.98505388 16.78572508 73.08527301 6.75 70.9375 C-3.32267978 67.9913407 -10.88953657 61.76159073 -16.3203125 52.828125 C-20.35674631 44.41653565 -20.37111631 34.52237627 -18.15234375 25.5859375 C-14.61814315 16.12146809 -8.39290257 9.53530784 0.5859375 4.96875 C10.01350338 1.18551968 19.5620198 1.22359351 29.0625 4.625 C34.39934655 6.92897614 38.58661138 10.27540613 43 14 C44.051875 14.763125 45.10375 15.52625 46.1875 16.3125 C56.1789921 25.85992579 59.88082921 39.44552717 60.28808594 52.87207031 C60.47892116 69.01673056 55.35625976 82.63664535 44.48046875 94.70703125 C43 96 43 96 41 96 C40.73445313 96.60972656 40.46890625 97.21945313 40.1953125 97.84765625 C36.75452278 104.04332663 28.19006756 106.43363156 21.76782227 108.45654297 C8.53376247 112.1024307 -6.41288197 111.5057322 -19 106 C-19.80308594 105.649375 -20.60617188 105.29875 -21.43359375 104.9375 C-34.04422745 98.64311091 -43.92650113 87.04356978 -49 74 C-53.67431779 57.90164954 -52.96964657 42.18334396 -45.3125 27.125 C-36.21454557 11.9919935 -23.27499192 3.6277799 -6.40234375 -0.66015625 C-3.92057877 -1.0112352 -2.35766716 -0.78588905 0 0 Z " fill="#E21B01" transform="translate(82,11)"/>
<path d="M0 0 C0.66 0 1.32 0 2 0 C2.36351562 0.76183594 2.72703125 1.52367188 3.1015625 2.30859375 C6.30684454 8.89174994 9.75197842 15.03469311 14 21 C8.31160882 21.9802248 2.82705667 22.11948801 -2.9375 22.0625 C-3.81212891 22.05798828 -4.68675781 22.05347656 -5.58789062 22.04882812 C-7.72529047 22.03714834 -9.86265463 22.01921689 -12 22 C-4.20739762 6.01056803 -4.20739762 6.01056803 0 0 Z " fill="#E11B03" transform="translate(24,89)"/>
<path d="M0 0 C4.53847198 1.34927545 8.31932246 3.19159348 12.375 5.625 C13.43460938 6.25664063 14.49421875 6.88828125 15.5859375 7.5390625 C16.38257812 8.02117187 17.17921875 8.50328125 18 9 C16.95252067 12.32303789 15.98183828 13.00981228 12.84765625 14.703125 C11.59165501 15.23252489 10.32960964 15.74776847 9.0625 16.25 C8.42892578 16.518125 7.79535156 16.78625 7.14257812 17.0625 C4.27170113 18.24586885 2.13337978 19 -1 19 C-1.12086218 12.56744599 -0.82351864 6.38226945 0 0 Z " fill="#DA1C05" transform="translate(44,117)"/>
<path d="M0 0 C0.33 4.95 0.66 9.9 1 15 C-9.17857143 12.05357143 -9.17857143 12.05357143 -13 10 C-11.74641445 6.23924335 -10.29326113 5.52350869 -7.0625 3.3125 C-6.16660156 2.68988281 -5.27070313 2.06726563 -4.34765625 1.42578125 C-2 0 -2 0 0 0 Z " fill="#D81F08" transform="translate(21,64)"/>
<path d="M0 0 C0.66 0 1.32 0 2 0 C2.625 2.375 2.625 2.375 3 5 C2.34 5.66 1.68 6.32 1 7 C0.34 6.67 -0.32 6.34 -1 6 C-0.690625 6.86625 -0.38125 7.7325 -0.0625 8.625 C0 12 0 12 -1.421875 13.734375 C-6.3375 18 -6.3375 18 -9 18 C-7.65135873 13.50902459 -5.85935169 9.67388743 -3.5 5.625 C-2.8915625 4.56539063 -2.283125 3.50578125 -1.65625 2.4140625 C-1.1096875 1.61742188 -0.563125 0.82078125 0 0 Z " fill="#D71E08" transform="translate(24,89)"/>
<path d="M0 0 C-1.13179687 0.49371094 -2.26359375 0.98742187 -3.4296875 1.49609375 C-4.91147042 2.14320148 -6.3932406 2.79033841 -7.875 3.4375 C-8.62136719 3.76298828 -9.36773437 4.08847656 -10.13671875 4.42382812 C-10.85214844 4.73642578 -11.56757812 5.04902344 -12.3046875 5.37109375 C-12.96452637 5.65911865 -13.62436523 5.94714355 -14.30419922 6.24389648 C-15.54991875 6.79932312 -16.78006037 7.39003018 -18 8 C-18 7.01 -18 6.02 -18 5 C-18.99 4.67 -19.98 4.34 -21 4 C-19.10546779 3.35035977 -17.20931351 2.70544885 -15.3125 2.0625 C-14.25675781 1.70285156 -13.20101562 1.34320313 -12.11328125 0.97265625 C-7.59303134 -0.43956737 -4.58507983 -1.28507904 0 0 Z " fill="#C52310" transform="translate(82,11)"/>
<path d="M0 0 C0.66 0.33 1.32 0.66 2 1 C1.01 1.33 0.02 1.66 -1 2 C-1 2.99 -1 3.98 -1 5 C-1.60328125 5.32613281 -2.2065625 5.65226562 -2.828125 5.98828125 C-4.02695313 6.64376953 -4.02695313 6.64376953 -5.25 7.3125 C-6.03890625 7.74175781 -6.8278125 8.17101563 -7.640625 8.61328125 C-9.89727134 9.9396214 -11.93998597 11.38884224 -14 13 C-13.16049024 7.95203872 -9.9629517 5.89538104 -6 3 C-2.6875 1.0625 -2.6875 1.0625 0 0 Z " fill="#DC1C03" transform="translate(85,15)"/>
<path d="M0 0 C0.33 0 0.66 0 1 0 C1.19865739 8.89543642 1.33447255 17.32910197 -1 26 C-1.33 26 -1.66 26 -2 26 C-2.33 22.37 -2.66 18.74 -3 15 C-2.01 14.67 -1.02 14.34 0 14 C0 9.38 0 4.76 0 0 Z " fill="#CC230A" transform="translate(141,58)"/>
<path d="M0 0 C1.32 0.66 2.64 1.32 4 2 C3.01 2 2.02 2 1 2 C1.11371497 4.29225435 1.24130964 6.58382388 1.375 8.875 C1.44460937 10.15117188 1.51421875 11.42734375 1.5859375 12.7421875 C1.67241106 16.08061699 1.67241106 16.08061699 4 18 C2.35 18.33 0.7 18.66 -1 19 C-1.12086218 12.56744599 -0.82351864 6.38226945 0 0 Z " fill="#BE2912" transform="translate(44,117)"/>
<path d="M0 0 C0.33 0 0.66 0 1 0 C1.33 4.62 1.66 9.24 2 14 C0 10 0 10 -0.25 7.875 C-0.4975 7.25625 -0.745 6.6375 -1 6 C-3.99615946 4.6954344 -3.99615946 4.6954344 -7 4 C-6 2 -6 2 -4 1.3125 C-3.01 1.1578125 -3.01 1.1578125 -2 1 C-1.67 1.33 -1.34 1.66 -1 2 C-0.67 1.34 -0.34 0.68 0 0 Z " fill="#D72007" transform="translate(45,48)"/>
<path d="M0 0 C0.66 0.99 1.32 1.98 2 3 C1.34 3 0.68 3 0 3 C0 3.99 0 4.98 0 6 C0.66 6 1.32 6 2 6 C2 6.66 2 7.32 2 8 C1.195625 8.268125 0.39125 8.53625 -0.4375 8.8125 C-1.283125 9.204375 -2.12875 9.59625 -3 10 C-3.33 10.99 -3.66 11.98 -4 13 C-4.33 12.34 -4.66 11.68 -5 11 C-4.00390625 8.3984375 -4.00390625 8.3984375 -2.5625 5.375 C-2.08941406 4.37210938 -1.61632813 3.36921875 -1.12890625 2.3359375 C-0.75636719 1.56507812 -0.38382813 0.79421875 0 0 Z " fill="#D1220A" transform="translate(38,36)"/>
<path d="M0 0 C1.32 0 2.64 0 4 0 C2.8141763 3.37503669 1.72426311 5.64722731 -1 8 C-1.125 2.25 -1.125 2.25 0 0 Z " fill="#D61C07" transform="translate(131,92)"/>
<path d="M0 0 C2.63249349 2.45699392 4.78137264 4.56568654 6 8 C5.67 8.99 5.34 9.98 5 11 C4.67 9.68 4.34 8.36 4 7 C2.68 6.67 1.36 6.34 0 6 C0 4.02 0 2.04 0 0 Z " fill="#D31C08" transform="translate(131,32)"/>
<path d="M0 0 C0.99 0.33 1.98 0.66 3 1 C2.71125 1.515625 2.4225 2.03125 2.125 2.5625 C0.71219973 5.62356725 -0.1248517 8.74944918 -1 12 C-1.66 12 -2.32 12 -3 12 C-2.49202991 7.6822542 -1.80317221 3.96697886 0 0 Z " fill="#CC2411" transform="translate(66,32)"/>
<path d="M0 0 C3.79588866 0.54226981 5.47211993 2.20127563 8 5 C7.01 5.495 7.01 5.495 6 6 C3.5249829 4.88568235 1.32116581 3.41849022 -1 2 C-0.67 1.34 -0.34 0.68 0 0 Z " fill="#D11F0C" transform="translate(79,75)"/>
<path d="M0 0 C3 1 3 1 4.75 3.4375 C5.36875 4.7059375 5.36875 4.7059375 6 6 C5.67 6.66 5.34 7.32 5 8 C3.68 7.34 2.36 6.68 1 6 C1.33 5.34 1.66 4.68 2 4 C1.01 3.67 0.02 3.34 -1 3 C-0.67 2.01 -0.34 1.02 0 0 Z " fill="#D61F05" transform="translate(49,71)"/>
<path d="M0 0 C2.64 0.99 5.28 1.98 8 3 C4.86501708 4.85776765 2.62528568 5.20140476 -1 5 C-0.67 3.35 -0.34 1.7 0 0 Z " fill="#D61C09" transform="translate(68,89)"/>
<path d="M0 0 C1.68762851 1.6454378 3.3540349 3.31288577 5 5 C5 5.33 5 5.66 5 6 C2.69 6 0.38 6 -2 6 C-1.34 5.01 -0.68 4.02 0 3 C0 2.01 0 1.02 0 0 Z " fill="#D0210F" transform="translate(33,104)"/>
<path d="M0 0 C0.66 0.33 1.32 0.66 2 1 C1.01 1.33 0.02 1.66 -1 2 C-1 2.99 -1 3.98 -1 5 C-2.98 5 -4.96 5 -7 5 C-4.88437775 2.67281553 -2.94982021 1.14186589 0 0 Z " fill="#CC220C" transform="translate(85,15)"/>
<path d="M0 0 C0.66 0 1.32 0 2 0 C2 0.66 2 1.32 2 2 C2.66 2.33 3.32 2.66 4 3 C4 4.65 4 6.3 4 8 C0 3.375 0 3.375 0 0 Z " fill="#D2200C" transform="translate(35,87)"/>
<path d="M0 0 C-1.8125 2 -1.8125 2 -4 4 C-4.99 4 -5.98 4 -7 4 C-7 3.01 -7 2.02 -7 1 C-4.53721199 -0.231394 -2.7204945 -0.07159196 0 0 Z " fill="#CD1305" transform="translate(124,72)"/>
</svg>
